<svg width="12" height="12" viewBox="0 0 12 12" fill="none" xmlns="http://www.w3.org/2000/svg">
<mask id="path-1-inside-1_115_569" fill="white">
<path fill-rule="evenodd" clip-rule="evenodd" d="M10.5195 4.51884L7.61399 4.11984L6.37462 1.36772C6.22912 1.04409 5.77124 1.04409 5.62537 1.36772L4.38674 4.11984L1.48049 4.51884C1.14374 4.56497 1.00537 4.97897 1.24649 5.21972L3.38924 7.35834L2.85224 10.3895C2.79149 10.7341 3.15862 10.994 3.46124 10.82L5.99999 9.36009L8.53912 10.82C8.84174 10.994 9.20887 10.7341 9.14812 10.3895L8.61112 7.35834L10.7535 5.21972C10.995 4.97897 10.8562 4.56497 10.5195 4.51884"/>
</mask>
<path fill-rule="evenodd" clip-rule="evenodd" d="M10.5195 4.51884L7.61399 4.11984L6.37462 1.36772C6.22912 1.04409 5.77124 1.04409 5.62537 1.36772L4.38674 4.11984L1.48049 4.51884C1.14374 4.56497 1.00537 4.97897 1.24649 5.21972L3.38924 7.35834L2.85224 10.3895C2.79149 10.7341 3.15862 10.994 3.46124 10.82L5.99999 9.36009L8.53912 10.82C8.84174 10.994 9.20887 10.7341 9.14812 10.3895L8.61112 7.35834L10.7535 5.21972C10.995 4.97897 10.8562 4.56497 10.5195 4.51884" fill="#FFCC00"/>
<path d="M7.61399 4.11984L7.15809 4.32515L7.27175 4.57754L7.54597 4.6152L7.61399 4.11984ZM6.37462 1.36772L5.91859 1.57275L5.91871 1.57303L6.37462 1.36772ZM5.62537 1.36772L5.16954 1.16225L5.16942 1.16251L5.62537 1.36772ZM4.38674 4.11984L4.45475 4.6152L4.72906 4.57754L4.84269 4.32505L4.38674 4.11984ZM1.48049 4.51884L1.54835 5.01422L1.5485 5.0142L1.48049 4.51884ZM1.24649 5.21972L0.893216 5.57355L0.893281 5.57361L1.24649 5.21972ZM3.38924 7.35834L3.88158 7.44557L3.92708 7.18872L3.74246 7.00445L3.38924 7.35834ZM2.85224 10.3895L2.35991 10.3022L2.35984 10.3027L2.85224 10.3895ZM3.46124 10.82L3.71047 11.2534L3.71049 11.2534L3.46124 10.82ZM5.99999 9.36009L6.24921 8.92663L5.99998 8.78333L5.75075 8.92665L5.99999 9.36009ZM8.53912 10.82L8.78834 10.3865L8.78834 10.3865L8.53912 10.82ZM9.14812 10.3895L9.64053 10.3027L9.64045 10.3022L9.14812 10.3895ZM8.61112 7.35834L8.25788 7.00448L8.07329 7.18875L8.11879 7.44557L8.61112 7.35834ZM10.7535 5.21972L10.4005 4.86562L10.4003 4.86586L10.7535 5.21972ZM10.5875 4.02349L7.68202 3.62449L7.54597 4.6152L10.4515 5.0142L10.5875 4.02349ZM8.0699 3.91454L6.83052 1.16241L5.91871 1.57303L7.15809 4.32515L8.0699 3.91454ZM6.83065 1.16269C6.5081 0.445264 5.4922 0.446422 5.16954 1.16225L6.0812 1.57319C6.05029 1.64177 5.95014 1.64292 5.91859 1.57275L6.83065 1.16269ZM5.16942 1.16251L3.93079 3.91464L4.84269 4.32505L6.08132 1.57292L5.16942 1.16251ZM4.31874 3.62449L1.41249 4.02349L1.5485 5.0142L4.45475 4.6152L4.31874 3.62449ZM1.41264 4.02347C0.663372 4.1261 0.361461 5.04262 0.893216 5.57355L1.59977 4.86589C1.60907 4.87518 1.6188 4.89126 1.62295 4.9107C1.62667 4.92811 1.62492 4.94306 1.62104 4.9547C1.61715 4.96633 1.60946 4.97963 1.59558 4.99167C1.58011 5.00508 1.56203 5.01234 1.54835 5.01422L1.41264 4.02347ZM0.893281 5.57361L3.03603 7.71224L3.74246 7.00445L1.59971 4.86583L0.893281 5.57361ZM2.89691 7.27112L2.35991 10.3022L3.34458 10.4767L3.88158 7.44557L2.89691 7.27112ZM2.35984 10.3027C2.22648 11.0592 3.03478 11.6419 3.71047 11.2534L3.21202 10.3865C3.22353 10.3799 3.24283 10.3743 3.26451 10.3758C3.28388 10.3771 3.29875 10.3836 3.3092 10.391C3.31964 10.3984 3.33016 10.4098 3.33746 10.4266C3.34565 10.4453 3.34679 10.4642 3.34465 10.4763L2.35984 10.3027ZM3.71049 11.2534L6.24924 9.79354L5.75075 8.92665L3.212 10.3865L3.71049 11.2534ZM5.75077 9.79356L8.2899 11.2534L8.78834 10.3865L6.24921 8.92663L5.75077 9.79356ZM8.28989 11.2534C8.96558 11.6419 9.77388 11.0592 9.64053 10.3027L8.65571 10.4763C8.65358 10.4642 8.65471 10.4453 8.66291 10.4266C8.67021 10.4098 8.68072 10.3984 8.69117 10.391C8.70161 10.3836 8.71648 10.3771 8.73585 10.3758C8.75753 10.3743 8.77683 10.3799 8.78834 10.3865L8.28989 11.2534ZM9.64045 10.3022L9.10345 7.27112L8.11879 7.44557L8.65579 10.4767L9.64045 10.3022ZM8.96436 7.71221L11.1067 5.57358L10.4003 4.86586L8.25788 7.00448L8.96436 7.71221ZM11.1065 5.57382C11.6397 5.04226 11.3358 4.12598 10.5873 4.02347L10.4516 5.01422C10.438 5.01235 10.42 5.00511 10.4046 4.99175C10.3907 4.97977 10.383 4.9665 10.3791 4.95484C10.3752 4.94317 10.3735 4.92812 10.3772 4.91058C10.3814 4.89101 10.3912 4.87488 10.4005 4.86562L11.1065 5.57382Z" fill="#BE8D00" mask="url(#path-1-inside-1_115_569)"/>
</svg>
