<svg width="12" height="12" viewBox="0 0 12 12" fill="none" xmlns="http://www.w3.org/2000/svg">
<path fill-rule="evenodd" clip-rule="evenodd" d="M10.5195 4.51875L7.61399 4.119L6.37462 1.36725C6.30187 1.206 6.15112 1.125 5.99999 1.125C5.84924 1.125 5.69849 1.206 5.62574 1.36725L4.38637 4.119L1.48049 4.51875C1.14374 4.56488 1.00537 4.9785 1.24649 5.21962L3.38924 7.35825L2.85224 10.3894C2.80499 10.6582 3.01762 10.875 3.25724 10.875C3.32474 10.875 3.39449 10.8577 3.46124 10.8195L5.99999 9.36L8.53912 10.8195C8.60549 10.8577 8.67562 10.875 8.74312 10.875C8.98237 10.875 9.19574 10.6582 9.14812 10.3894L8.61112 7.35825L10.7535 5.21962C10.995 4.9785 10.8562 4.56488 10.5195 4.51875V4.51875Z" fill="#BE8D00"/>
<path fill-rule="evenodd" clip-rule="evenodd" d="M8.50215 6.8981L8.16941 7.23177L8.25101 7.69781L8.74473 10.5L6.4493 9.17348L5.99977 8.91326L5.55025 9.17348L3.25482 10.5L3.74853 7.69781L3.83105 7.23177L3.49785 6.8981L1.5 4.89245L4.18228 4.52252L4.67735 4.45361L4.88204 3.99663L5.99977 1.5L7.11796 3.99663L7.32311 4.45361L7.81727 4.52252L10.5 4.89245L8.50215 6.8981Z" fill="white"/>
<path fill-rule="evenodd" clip-rule="evenodd" d="M6 9.07102L5.99999 9.34893V9.52438V9.17348V8.91326L5.55045 9.17348L3.25491 10.5L3.74864 7.69781L3.83116 7.23177L3.49794 6.8981L1.5 4.89245L4.18241 4.52252L4.6775 4.45361L4.88221 3.99663L5.99999 1.5V4.45361V6.3509V8.16431V8.91326L6 9.07102Z" fill="#FFCC00"/>
</svg>
